:SAMPLES-PER-SECOND 24
:FULLY-SPECIFIED
:DEGREES
396
root  -6.8171 34.0638 -1.00915 -172.447 9.59689 -176.248
RightUpLeg  -52.4311 -2.37483 -2.02356
RightLeg  45.2663 10.851 11.2277
RightFoot  4.97677 -0.806063 5.85486
RightToes  -1.46215e-006 3.27826e-006 1.63871e-007
Spine  5.17596 -11.295 -15.0999
Spine1  10.5078 -18.945 23.284
HEad  -24.0324 35.6193 -20.6818
LeftShoulder1  0.900558 -2.78532 -6.64823
LeftArm  41.853 -52.6472 -13.3506
LeftForeArm  36.0036 -30.8384 -4.74009
LeftHand  0.16418 0.170934 -3.70743
RightShoulder  3.61776 6.20686 31.3655
RightArm  20.156 -40.065 21.471
RightForeArm  56.5086 71.9083 136.726
RightHand  0.15002 -6.65667 -15.3687
LeftUpLeg  29.0424 5.6655 8.64197
LeftLeg  3.44929 24.6639 0.903393
LeftFoot  -27.7059 -3.45475 -24.8243
LeftToes  1.24762e-006 1.46925e-008 1.29056e-009
397
root  -6.87711 34.0054 -1.35055 -172.233 9.79248 -176.495
RightUpLeg  -52.7715 -2.72141 -2.30583
RightLeg  46.6415 10.9324 11.8603
RightFoot  3.20545 -0.723078 5.82563
RightToes  -1.46215e-006 3.27826e-006 1.63871e-007
Spine  6.70467 -10.9716 -13.7802
Spine1  10.3187 -18.7181 23.1497
HEad  -29.0509 34.6465 -23.2252
LeftShoulder1  0.926014 -2.44155 -8.05425
LeftArm  43.9006 -49.7555 -14.1423
LeftForeArm  31.0513 -26.6036 -4.05458
LeftHand  0.429445 -0.171086 -8.92334
RightShoulder  3.74561 6.21487 32.6588
RightArm  18.0775 -41.7358 21.5646
RightForeArm  59.9102 70.869 139.727
RightHand  0.160449 -6.7093 -15.6498
LeftUpLeg  28.9058 5.7627 8.48021
LeftLeg  4.73873 24.1901 1.15664
LeftFoot  -26.6576 -3.21758 -24.758
LeftToes  1.24762e-006 1.46925e-008 1.29056e-009
398
root  -6.75657 33.9975 -1.90526 -172.068 8.85553 -176.789
RightUpLeg  -52.6447 -3.28012 -2.71079
RightLeg  48.225 10.3532 11.866
RightFoot  1.08546 -0.539469 5.00862
RightToes  -1.46215e-006 3.27826e-006 1.63871e-007
Spine  7.19345 -10.5321 -12.0414
Spine1  11.2237 -18.0657 21.384
HEad  -32.075 32.4227 -22.9587
LeftShoulder1  0.863568 -2.14192 -7.73908
LeftArm  34.2742 -50.2836 -12.6633
LeftForeArm  31.9692 -29.2406 -4.59055
LeftHand  0.166953 0.355904 -4.08337
RightShoulder  3.75303 6.21899 32.7185
RightArm  17.2092 -42.9527 22.5869
RightForeArm  60.4316 70.497 140.685
RightHand  0.17341 -6.74551 -16.2736
LeftUpLeg  27.3387 7.80363 11.535
LeftLeg  10.0789 16.4833 0.77254
LeftFoot  -27.3763 -3.673 -26.7341
LeftToes  1.24762e-006 1.46925e-008 1.29056e-009
399
root  -6.49529 34.2792 -2.5989 -172.376 7.52524 -176.758
RightUpLeg  -50.671 -2.73003 -3.15772
RightLeg  48.228 9.0718 10.4071
RightFoot  -0.619082 -0.457491 4.82634
RightToes  -1.46215e-006 3.27826e-006 1.63871e-007
Spine  7.94854 -10.2202 -10.3781
Spine1  11.779 -17.6631 20.1348
HEad  -32.3964 30.3536 -23.0901
LeftShoulder1  0.848993 -2.37863 -6.7777
LeftArm  37.3574 -53.2019 -13.3693
LeftForeArm  30.847 -28.4525 -4.47479
LeftHand  0.139991 0.228795 -3.20368
RightShoulder  3.61346 6.17605 31.4399
RightArm  18.0776 -41.5995 23.6065
RightForeArm  59.0574 71.1227 139.03
RightHand  0.202628 -6.84799 -17.3461
LeftUpLeg  22.774 15.6934 17.9254
LeftLeg  22.8812 6.4216 2.44578
LeftFoot  -22.4426 -2.74124 -29.5285
LeftToes  1.24762e-006 1.46925e-008 1.29056e-009
400
root  -6.23265 34.7502 -3.24395 -172.62 6.19371 -177.113
RightUpLeg  -48.1648 -1.03137 -4.35703
RightLeg  46.9251 7.73531 8.46364
RightFoot  -1.84065 -0.489633 5.73531
RightToes  -1.46215e-006 3.27826e-006 1.63871e-007
Spine  9.85672 -10.1582 -9.28248
Spine1  10.8488 -17.3893 19.8645
HEad  -33.0997 28.935 -24.1913
LeftShoulder1  0.904401 -2.54661 -7.35274
LeftArm  39.2328 -55.19 -13.0551
LeftForeArm  29.2854 -26.9684 -4.22909
LeftHand  0.139013 0.864614 -3.73393
RightShoulder  3.53765 6.17758 30.6412
RightArm  19.1023 -40.4141 24.3913
RightForeArm  58.003 72.0459 136.339
RightHand  0.196331 -6.76213 -17.8274
LeftUpLeg  11.4012 15.924 18.4997
LeftLeg  42.8379 6.92352 7.23615
LeftFoot  -6.89548 1.0201 -24.8663
LeftToes  1.24762e-006 1.46925e-008 1.29056e-009
401
root  -6.14583 35.0877 -3.70664 -172.355 4.51907 -177.581
RightUpLeg  -46.7522 0.129851 -5.67309
RightLeg  45.7923 6.17949 6.4558
RightFoot  -2.61962 -0.50564 6.3866
RightToes  -1.46215e-006 3.27826e-006 1.63871e-007
Spine  11.417 -10.4086 -7.95311
Spine1  10.2401 -17.1668 19.85
HEad  -34.0413 28.0734 -24.3708
LeftShoulder1  0.898305 -2.49271 -7.38888
LeftArm  37.4225 -57.4122 -11.6547
LeftForeArm  28.2536 -27.4073 -4.37965
LeftHand  0.0303762 1.00529 -0.97615
RightShoulder  3.5148 6.19059 30.3516
RightArm  19.7451 -40.7816 24.6738
RightForeArm  57.7544 72.3164 135.481
RightHand  0.161142 -6.55112 -17.5615
LeftUpLeg  -3.10001 15.3519 17.3471
LeftLeg  60.845 2.18393 4.66817
LeftFoot  2.15266 1.85905 -15.3232
LeftToes  1.24762e-006 1.46925e-008 1.29056e-009
402
root  -6.14309 35.6447 -4.24569 -172.517 3.64839 -178.36
RightUpLeg  -44.1159 -0.176514 -6.56437
RightLeg  43.4843 5.56212 5.33455
RightFoot  -2.70032 -0.530084 6.76239
RightToes  -1.46215e-006 3.27826e-006 1.63871e-007
Spine  11.5727 -10.2032 -7.92414
Spine1  10.5724 -16.7867 18.9114
HEad  -33.9785 27.5181 -23.8013
LeftShoulder1  0.833759 -2.59082 -5.93313
LeftArm  39.8153 -60.3385 -11.6657
LeftForeArm  25.7956 -26.3686 -4.28461
LeftHand  -0.00618023 0.761245 0.0602176
RightShoulder  3.49324 6.20359 30.076
RightArm  20.0917 -40.5735 24.458
RightForeArm  55.9422 72.3653 135.273
RightHand  0.173388 -6.61795 -17.7403
LeftUpLeg  -15.5288 17.4597 15.0124
LeftLeg  70.4738 -0.852682 -1.55594
LeftFoot  -0.581149 0.925648 -9.72062
LeftToes  1.24762e-006 1.46925e-008 1.29056e-009
403
root  -6.23669 36.3595 -4.78562 -173.003 4.02678 -178.99
RightUpLeg  -40.5067 -0.639016 -7.09829
RightLeg  39.6292 6.85166 5.77229
RightFoot  -1.77609 -0.623277 7.28754
RightToes  -1.46215e-006 3.27826e-006 1.63871e-007
Spine  11.7381 -9.76852 -8.4945
Spine1  10.7734 -16.1743 17.7561
HEad  -33.5047 27.1618 -23.3944
LeftShoulder1  0.806529 -2.68493 -5.19879
LeftArm  41.2257 -62.0358 -11.6819
LeftForeArm  24.0077 -25.3635 -4.16122
LeftHand  -0.0264302 0.995792 0.57086
RightShoulder  3.49766 6.24615 29.9617
RightArm  20.3441 -40.0327 24.4926
RightForeArm  53.193 72.8285 133.627
RightHand  0.179261 -6.63577 -18.0117
LeftUpLeg  -25.0288 21.3344 11.458
LeftLeg  69.7376 -0.41295 -0.393638
LeftFoot  -4.65033 0.622556 -10.2856
LeftToes  1.24762e-006 1.46925e-008 1.29056e-009
404
root  -6.4827 36.9493 -5.25375 -172.97 5.14494 -179.375
RightUpLeg  -37.8826 -0.772596 -7.5785
RightLeg  35.5516 8.17583 5.98949
RightFoot  -0.255757 -0.679444 6.97442
RightToes  -1.46215e-006 3.27826e-006 1.63871e-007
Spine  11.8375 -9.37278 -9.33413
Spine1  10.6259 -15.6676 17.3729
HEad  -33.2834 27.1297 -23.036
LeftShoulder1  0.809174 -2.63066 -5.37777
LeftArm  39.797 -62.6442 -10.5677
LeftForeArm  23.8388 -25.887 -4.28309
LeftHand  -0.0995287 1.20917 2.62025
RightShoulder  3.51507 6.27366 30.0401
RightArm  20.4793 -40.4636 24.7794
RightForeArm  52.9587 73.0585 132.791
RightHand  0.130519 -6.35534 -17.4237
LeftUpLeg  -32.5948 23.514 7.14697
LeftLeg  61.4398 0.255142 1.13246
LeftFoot  -7.97295 0.3166 -9.13157
LeftToes  1.24762e-006 1.46925e-008 1.29056e-009
405
root  -6.94258 37.5056 -5.68487 -172.85 7.25909 -179.605
RightUpLeg  -35.3939 -0.693515 -8.12224
RightLeg  31.0406 9.04788 5.60161
RightFoot  1.49401 -0.842808 7.55776
RightToes  -1.46215e-006 3.27826e-006 1.63871e-007
Spine  11.7244 -9.03161 -10.1685
Spine1  10.9114 -15.3177 17.0701
HEad  -33.459 27.6297 -23.1645
LeftShoulder1  0.823204 -2.7283 -5.39867
LeftArm  39.507 -62.4533 -9.46531
LeftForeArm  23.3007 -25.7174 -4.27524
LeftHand  -0.108537 1.22469 2.87991
RightShoulder  3.53607 6.25907 30.3142
RightArm  20.0439 -40.6918 24.8712
RightForeArm  53.5111 72.9598 133.167
RightHand  0.108442 -6.22974 -17.022
LeftUpLeg  -36.222 22.751 4.39244
LeftLeg  47.5448 -3.89738 -4.00921
LeftFoot  -8.73977 0.286444 -9.81555
LeftToes  1.24762e-006 1.46925e-008 1.29056e-009
406
root  -7.74129 37.9201 -6.16699 -173.323 12.1962 -179.059
RightUpLeg  -32.5635 1.40139 -8.48891
RightLeg  25.9982 13.1938 6.66231
RightFoot  3.77201 -1.22557 9.39535
RightToes  -1.46215e-006 3.27826e-006 1.63871e-007
Spine  12.1681 -8.25386 -9.57858
Spine1  11.1082 -14.4101 16.4224
HEad  -33.9455 29.4223 -24.7581
LeftShoulder1  0.867927 -2.89561 -5.79573
LeftArm  39.1969 -60.4135 -8.902
LeftForeArm  22.7129 -25.1044 -4.17431
LeftHand  -0.0846485 1.15343 2.18386
RightShoulder  3.55719 6.26468 30.5126
RightArm  19.9059 -40.1855 24.6106
RightForeArm  52.7368 72.9941 133.024
RightHand  0.115815 -6.2519 -17.5055
LeftUpLeg  -34.1668 19.8471 5.53962
LeftLeg  34.0966 -7.52147 -5.23053
LeftFoot  -3.67838 0.915455 -13.2168
LeftToes  1.24762e-006 1.46925e-008 1.29056e-009
407
root  -8.69252 38.2343 -6.71834 -173.221 19.9294 -177.953
RightUpLeg  -30.2279 3.87862 -7.9596
RightLeg  19.1272 16.9388 6.11561
RightFoot  6.84595 -1.47417 9.4912
RightToes  -1.46215e-006 3.27826e-006 1.63871e-007
Spine  12.1524 -7.15124 -9.09755
Spine1  10.8843 -12.9485 15.9522
HEad  -34.4941 33.008 -27.4134
LeftShoulder1  0.895899 -2.7619 -6.62578
LeftArm  39.7247 -56.7848 -8.5365
LeftForeArm  22.2729 -25.3365 -4.24761
LeftHand  -0.115426 1.05949 2.97488
RightShoulder  3.54146 6.30748 30.1879
RightArm  20.8431 -40.1454 23.9968
RightForeArm  53.9029 72.8367 133.618
RightHand  0.117917 -6.26784 -17.4561
LeftUpLeg  -30.7483 18.664 7.63619
LeftLeg  28.9305 -3.60313 -1.81364
LeftFoot  1.17169 1.20466 -11.1222
LeftToes  1.24762e-006 1.46925e-008 1.29056e-009
408
root  -9.58476 38.5073 -7.1592 -171.038 27.6053 -176.27
RightUpLeg  -29.3217 -1.32536 -4.58085
RightLeg  12.308 11.5524 3.00699
RightFoot  8.37868 -1.33336 7.99176
RightToes  -1.46215e-006 3.27826e-006 1.63871e-007
Spine  10.4499 -6.39585 -9.27324
Spine1  11.1259 -12.1738 16.5506
HEad  -35.5647 37.1371 -29.7316
LeftShoulder1  0.871107 -2.39939 -7.1377
LeftArm  41.233 -52.7249 -7.21823
LeftForeArm  21.5891 -25.5649 -4.33322
LeftHand  -0.142139 1.23359 3.84047
RightShoulder  3.54466 6.34063 30.0968
RightArm  21.0519 -40.7173 23.2376
RightForeArm  56.5157 72.4342 135.061
RightHand  0.193916 -6.83008 -16.9082
LeftUpLeg  -30.2239 24.0533 7.30846
LeftLeg  29.021 -1.01792 -0.258348
LeftFoot  0.979655 0.940377 -8.75648
LeftToes  1.24762e-006 1.46925e-008 1.29056e-009
409
root  -10.2451 38.5922 -7.37881 -168.444 32.5752 -174.981
RightUpLeg  -30.017 -9.07857 -2.54962
RightLeg  10.1227 -3.13424 1.85599
RightFoot  6.16832 -1.00576 6.81703
RightToes  -1.46215e-006 3.27826e-006 1.63871e-007
Spine  8.79969 -6.44932 -10.74
Spine1  11.2755 -12.4309 17.6384
HEad  -37.3331 40.2424 -31.316
LeftShoulder1  0.833923 -2.05929 -7.39803
LeftArm  40.7195 -48.8942 -4.89431
LeftForeArm  21.3194 -25.477 -4.3286
LeftHand  -0.149948 1.37711 4.18705
RightShoulder  3.63504 6.34604 31.0089
RightArm  19.4799 -41.3527 22.633
RightForeArm  57.7048 72.1625 135.968
RightHand  0.351414 -7.76413 -17.937
LeftUpLeg  -32.1231 31.0962 5.44571
LeftLeg  29.5189 -2.33369 -1.07489
LeftFoot  -0.921599 0.815944 -8.87414
LeftToes  1.24762e-006 1.46925e-008 1.29056e-009
410
root  -10.7057 38.4997 -7.45456 -167.375 35.2974 -173.968
RightUpLeg  -30.9873 -17.3912 -0.587341
RightLeg  15.0545 -0.690079 0.689223
RightFoot  4.5001 -1.13672 8.36408
RightToes  -1.46215e-006 3.27826e-006 1.63871e-007
Spine  8.66208 -6.66823 -12.2291
Spine1  11.1393 -12.7828 18.1786
HEad  -38.1841 42.3805 -32.2332
LeftShoulder1  0.798615 -1.85761 -7.29071
LeftArm  40.0483 -46.2282 -3.82705
LeftForeArm  21.1571 -25.3456 -4.30886
LeftHand  -0.178898 1.22169 4.86408
RightShoulder  3.71131 6.33406 31.8383
RightArm  17.9937 -42.2903 22.4548
RightForeArm  59.5732 71.675 137.489
RightHand  0.414664 -7.89344 -19.8094
LeftUpLeg  -33.5793 34.6609 4.76533
LeftLeg  31.1028 -2.92125 -1.53271
LeftFoot  -1.44576 0.68883 -7.84994
LeftToes  1.24762e-006 1.46925e-008 1.29056e-009
